<svg width="295" height="55" viewBox="0 0 295 55" fill="currentColor" xmlns="http://www.w3.org/2000/svg">
<path fill-rule="currentColor" clip-rule="evenodd" d="M38.995 5.97595C39.0955 4.26873 37.6884 2.86279 35.9799 2.86279C34.1709 2.86279 32.7638 4.26873 32.7638 5.97595C32.6633 7.68316 34.0703 9.0891 35.7789 9.0891C37.4874 9.0891 38.8945 7.68316 38.995 5.97595ZM22.211 4.77086C23.417 4.77086 24.3215 5.7751 24.3215 6.87977C24.3215 8.08486 23.3165 8.98868 22.1105 8.98868C20.9044 8.98868 19.9999 7.98443 19.9999 6.87977C19.9999 5.7751 21.0049 4.77086 22.211 4.77086ZM23.1156 15.918C23.1156 14.512 22.1106 13.4073 20.7035 13.4073C19.397 13.4073 18.191 14.512 18.0905 15.918C18.0905 17.3239 19.0955 18.4286 20.5025 18.4286C21.9096 18.4286 23.1156 17.3239 23.1156 15.918ZM38.2915 19.6337C38.2915 18.2277 37.2865 17.123 35.8795 17.123C34.573 17.123 33.3669 18.2277 33.2664 19.6337C33.2664 21.0396 34.2714 22.1443 35.6785 22.1443C37.0855 22.1443 38.2915 21.0396 38.2915 19.6337ZM15.8794 19.6337C15.8794 18.2277 14.8744 17.123 13.4673 17.123C12.0603 17.123 10.9548 18.2277 10.8543 19.6337C10.8543 21.0396 11.8593 22.1443 13.2663 22.1443C14.6734 22.1443 15.8794 21.0396 15.8794 19.6337ZM42.9145 9.79207C44.623 9.79207 46.03 11.198 45.9295 12.9052C45.829 14.6124 44.422 16.0184 42.7135 16.0184C41.0049 16.0184 39.5979 14.6124 39.6984 12.9052C39.7989 11.198 41.2059 9.79207 42.9145 9.79207ZM31.9598 12.9052C32.0603 11.198 30.6533 9.79207 28.9447 9.79207C27.2362 9.79207 25.7286 11.198 25.7286 12.9052C25.6281 14.6124 27.0352 16.0184 28.7437 16.0184C30.4523 16.0184 31.8593 14.6124 31.9598 12.9052ZM6.13076 14.0099C7.53779 14.0099 8.54282 15.1146 8.54282 16.5205C8.54282 17.826 7.33679 18.9307 6.03025 18.9307C4.62322 18.9307 3.61819 17.826 3.61819 16.4201C3.61819 15.1146 4.82422 14.0099 6.13076 14.0099ZM128.744 31.3621C127.638 31.0608 126.432 30.9604 125.427 30.9604C124.02 30.9604 122.513 31.2617 121.206 32.5672C120.101 33.6719 119.397 35.4795 119.397 38.7935C119.397 42.9109 120.603 45.4215 123.618 45.4215C126.935 45.4215 128.844 41.505 128.844 37.8897V31.3621H128.744ZM125.025 18.8091C126.935 18.6082 130.151 18.4074 133.266 18.5078V45.2207C134.472 45.4215 135.578 45.5219 136.784 45.6224V48.4342C134.573 48.6351 131.658 48.8359 128.945 48.7355C128.945 47.2291 129.045 45.6224 129.246 44.819H129.146C127.94 47.6308 125.427 49.1372 122.312 49.1372C116.683 49.1372 114.573 44.7185 114.573 39.2956C114.573 33.2702 117.688 27.4456 125.528 27.4456C126.332 27.4456 127.739 27.546 128.643 27.6464V22.0226C127.839 21.8218 125.729 21.621 124.925 21.621L125.025 18.8091ZM103.719 27.3451C97.5879 27.3451 94.1709 32.0651 94.1709 38.3918C94.1709 45.8232 97.7889 49.1372 104.322 49.1372C106.935 49.1372 109.447 48.6351 111.558 47.8317L111.156 44.2164C109.447 45.0198 107.136 45.5219 105.025 45.5219C100.804 45.5219 98.6935 43.3126 98.794 38.4922H112.161C112.261 37.6888 112.261 36.9859 112.261 36.3833C112.261 31.3621 109.648 27.3451 103.719 27.3451ZM107.739 35.3791H98.794C99.196 32.5672 100.905 30.6591 103.518 30.6591C106.131 30.6591 107.839 32.4668 107.739 35.3791ZM82.9146 27.3451C86.7337 27.3451 89.0452 29.454 89.0452 34.0736V45.4215C90.0503 45.5219 91.6583 45.7228 92.5628 45.9236V48.7355H84.5226V35.2787C84.5226 32.8685 83.9196 31.1613 81.5075 31.1613C78.593 31.1613 76.1809 34.5757 76.1809 38.6931V48.8359H71.6583V35.2787C71.6583 32.8685 71.0553 31.1613 68.6432 31.1613C65.7286 31.1613 63.3166 34.5757 63.3166 38.6931V48.8359H58.794V31.2617C57.99 31.0608 55.8794 30.86 55.0754 30.86V28.0481C57.1859 27.7468 60.7035 27.6464 63.1156 27.7468C63.1156 28.5502 63.0151 30.7596 62.8141 31.8642H62.9146C64.3216 28.7511 67.0352 27.3451 70.1508 27.3451C73.7688 27.3451 75.4774 29.6549 75.7789 31.7638C77.1859 28.9519 79.6985 27.3451 82.9146 27.3451ZM52.1608 27.9477V33.7723H49.3467C49.0452 32.768 48.9447 31.7638 48.8442 30.7596C48.1407 30.6591 47.4372 30.5587 46.7337 30.5587C44.3216 30.5587 42.9146 31.4625 42.9146 33.2702C42.9146 33.9731 43.1156 34.3748 43.5176 34.7765C44.3612 35.6195 45.7292 36.0256 47.204 36.4635C48.8918 36.9646 50.7194 37.5072 52.0603 38.7935C52.8643 39.5969 53.3668 40.5007 53.3668 42.1075C53.3668 46.3253 49.5477 49.1372 44.1206 49.1372C42.5126 49.1372 40.3015 48.9364 38.8945 48.5347V42.4088H41.7085C41.9095 43.413 42.1106 44.5177 42.2111 45.5219C42.7136 45.6224 43.7186 45.7228 44.5226 45.7228C46.8342 45.7228 48.7437 44.7185 48.7437 42.8105C48.7437 42.1075 48.4422 41.6054 48.1407 41.4045C47.3599 40.6243 46.0334 40.2217 44.5927 39.7844C42.881 39.2648 41.0082 38.6963 39.6985 37.3876C38.794 36.4837 38.392 35.5799 38.392 33.8727C38.392 29.8557 41.809 27.3451 47.1357 27.3451C48.6432 27.3451 50.5528 27.546 52.1608 27.9477ZM19.196 27.7468C19.196 28.5502 19.0955 30.7596 18.8945 31.8642H18.995C20.402 28.7511 23.1156 27.3451 26.2312 27.3451C30.1508 27.3451 32.4623 29.454 32.4623 34.0736V45.4215C33.4673 45.5219 35.0754 45.7228 35.9799 45.9236V48.7355H27.9397V35.2787C27.9397 32.6676 27.3367 31.1613 24.8241 31.1613C21.809 31.1613 19.397 34.4753 19.397 38.6931V48.8359H14.8744V31.2617C14.0704 31.0608 11.9598 30.86 11.1558 30.86V28.0481C13.3668 27.7468 16.8844 27.6464 19.196 27.7468ZM8.24121 22.0226V48.7355H3.61809V25.3367C2.31156 25.2362 1.10553 25.1358 0 24.8345V22.0226H8.24121ZM137.688 18.529C136.382 18.529 135.377 19.5332 135.377 20.8387C135.377 22.1443 136.382 23.1485 137.688 23.1485C138.995 23.1485 140 22.1443 140 20.8387C140 19.5332 138.995 18.529 137.688 18.529ZM137.688 18.7298C138.894 18.7298 139.799 19.6336 139.799 20.8387C139.799 21.9434 138.894 22.9477 137.688 22.9477C136.482 22.9477 135.578 22.0438 135.578 20.8387C135.578 19.7341 136.482 18.7298 137.688 18.7298ZM137.889 19.5332H136.784V21.9434H137.186V21.0396H137.789L138.492 21.9434H138.894L138.191 20.9392C138.492 20.8387 138.794 20.6379 138.794 20.2362C138.794 20.0353 138.693 19.8345 138.593 19.7341C138.492 19.6336 138.191 19.5332 137.889 19.5332ZM138.392 20.3366C138.392 20.5375 138.09 20.7383 137.789 20.7383H137.186V19.9349H137.889C138.191 19.9349 138.392 20.1358 138.392 20.3366Z" fill="currentColor"/>
<line x1="165" y1="11" x2="165" y2="55" stroke="currentColor" stroke-opacity="0.2" stroke-width="2"/>
<path d="M195.146 40.216C191.636 40.216 188.846 37.336 188.846 33.826C188.846 30.316 191.636 27.382 195.146 27.382C197.108 27.382 198.818 28.246 199.916 29.614L198.548 30.712C197.756 29.74 196.532 29.11 195.164 29.11C192.644 29.11 190.7 31.27 190.7 33.826C190.7 36.364 192.626 38.488 195.164 38.488C196.532 38.488 197.756 37.858 198.548 36.886L199.916 37.984C198.818 39.352 197.108 40.216 195.146 40.216ZM203.541 40H201.777V27.022H203.541V40ZM207.071 29.668C206.423 29.668 205.865 29.182 205.865 28.534C205.865 27.886 206.423 27.4 207.071 27.4C207.737 27.4 208.277 27.886 208.277 28.534C208.277 29.182 207.737 29.668 207.071 29.668ZM207.953 40H206.189V31.594H207.953V40ZM215.101 31.378C217.225 31.378 218.485 32.8 218.467 35.194V40H216.703V35.302C216.703 33.934 215.875 33.106 214.795 33.106C213.697 33.106 212.365 33.736 212.365 35.482V40H210.601V31.594H212.365V32.89C212.851 31.846 214.201 31.378 215.101 31.378ZM221.872 29.668C221.224 29.668 220.666 29.182 220.666 28.534C220.666 27.886 221.224 27.4 221.872 27.4C222.538 27.4 223.078 27.886 223.078 28.534C223.078 29.182 222.538 29.668 221.872 29.668ZM222.754 40H220.99V31.594H222.754V40ZM229.38 40.216C226.95 40.216 224.844 38.452 224.844 35.788C224.844 33.124 226.95 31.378 229.38 31.378C230.748 31.378 231.918 31.936 232.656 32.818L231.486 33.916C231 33.376 230.262 33.034 229.416 33.034C227.85 33.034 226.608 34.186 226.608 35.788C226.608 37.39 227.85 38.56 229.416 38.56C230.262 38.56 231 38.218 231.486 37.678L232.656 38.776C231.918 39.658 230.748 40.216 229.38 40.216ZM240.901 32.854V31.594H242.665V40H240.901V38.578C240.361 39.55 239.209 40.216 237.913 40.216C235.717 40.216 233.827 38.38 233.827 35.788C233.827 33.286 235.609 31.378 237.985 31.378C239.209 31.378 240.361 31.9 240.901 32.854ZM238.219 38.56C239.623 38.56 240.883 37.372 240.883 35.788C240.883 34.168 239.533 33.034 238.183 33.034C236.743 33.034 235.609 34.294 235.609 35.788C235.609 37.3 236.743 38.56 238.219 38.56ZM247.082 40H245.318V27.022H247.082V40ZM252.643 27.598H261.877V29.29H258.187V40H256.333V29.29H252.643V27.598ZM266.034 31.378C266.61 31.378 267.204 31.522 267.474 31.684L267.168 33.358C266.7 33.142 266.268 33.07 265.926 33.07C264.396 33.07 263.676 34.708 263.676 36.976V40H261.894V31.594H263.676V33.484C264.108 32.008 264.954 31.378 266.034 31.378ZM269.842 29.668C269.194 29.668 268.636 29.182 268.636 28.534C268.636 27.886 269.194 27.4 269.842 27.4C270.508 27.4 271.048 27.886 271.048 28.534C271.048 29.182 270.508 29.668 269.842 29.668ZM270.724 40H268.96V31.594H270.724V40ZM279.907 32.854V31.594H281.671V40H279.907V38.578C279.367 39.55 278.215 40.216 276.919 40.216C274.723 40.216 272.833 38.38 272.833 35.788C272.833 33.286 274.615 31.378 276.991 31.378C278.215 31.378 279.367 31.9 279.907 32.854ZM277.225 38.56C278.629 38.56 279.889 37.372 279.889 35.788C279.889 34.168 278.539 33.034 277.189 33.034C275.749 33.034 274.615 34.294 274.615 35.788C274.615 37.3 275.749 38.56 277.225 38.56ZM286.088 40H284.324V27.022H286.088V40ZM291.328 40.216C289.762 40.216 288.16 39.244 288.124 37.48H289.762C289.762 38.146 290.356 38.722 291.31 38.722C292.282 38.722 292.876 38.236 292.876 37.606C292.876 37.048 292.426 36.76 291.796 36.616L290.662 36.346C289.096 35.932 288.376 35.122 288.376 33.88C288.376 32.512 289.618 31.378 291.364 31.378C292.804 31.378 294.352 32.134 294.352 33.898H292.66C292.66 33.286 292.03 32.872 291.4 32.872C290.662 32.872 290.158 33.358 290.158 33.934C290.158 34.456 290.644 34.744 291.166 34.87L292.444 35.176C294.244 35.626 294.64 36.742 294.64 37.642C294.64 39.244 293.056 40.216 291.328 40.216Z" fill="currentColor"/>
</svg>
